<svg width="264" height="371" viewBox="0 0 264 371" fill="none" xmlns="http://www.w3.org/2000/svg">
<path fill-rule="evenodd" clip-rule="evenodd" d="M9 5C6.02734 5 3.55859 2.83789 3.08203 0H14.918C14.6367 1.66992 13.668 3.10547 12.3125 4.00488C11.3633 4.63379 10.2227 5 9 5ZM16.082 0C16.5586 2.83789 19.0273 5 22 5C24.9727 5 27.4414 2.83789 27.918 0H16.082ZM29.082 0C29.5586 2.83789 32.0273 5 35 5C36.1523 5 37.2305 4.6748 38.1445 4.11035C39.5859 3.2207 40.625 1.7373 40.918 0H29.082ZM42.082 0C42.5586 2.83789 45.0273 5 48 5C49.332 5 50.5625 4.56641 51.5586 3.83301C52.7852 2.92871 53.6562 1.56738 53.918 0H42.082ZM55.082 0C55.5586 2.83789 58.0273 5 61 5C62.0898 5 63.1133 4.70801 63.9961 4.19922C65.5156 3.32129 66.6172 1.7959 66.918 0H55.082ZM68.082 0C68.3594 1.65527 69.3164 3.08008 70.6523 3.98047C71.6094 4.62402 72.7617 5 74 5C75.2461 5 76.4062 4.61914 77.3672 3.96777C78.6914 3.06641 79.6406 1.64648 79.918 0H68.082ZM81.082 0C81.5586 2.83789 84.0273 5 87 5C89.9727 5 92.4414 2.83789 92.918 0H81.082ZM94.082 0C94.5586 2.83789 97.0273 5 100 5C102.973 5 105.441 2.83789 105.918 0H94.082ZM107.082 0C107.559 2.83789 110.027 5 113 5C115.973 5 118.441 2.83789 118.918 0H107.082ZM120.082 0C120.559 2.83789 123.027 5 126 5C128.973 5 131.441 2.83789 131.918 0H120.082ZM133.082 0C133.559 2.83789 136.027 5 139 5C141.973 5 144.441 2.83789 144.918 0H133.082ZM146.082 0C146.559 2.83789 149.027 5 152 5C154.973 5 157.441 2.83789 157.918 0H146.082ZM159.082 0C159.559 2.83789 162.027 5 165 5C167.973 5 170.441 2.83789 170.918 0H159.082ZM172.082 0C172.559 2.83789 175.027 5 178 5C179.727 5 181.281 4.27246 182.375 3.10742C183.168 2.26367 183.719 1.19141 183.918 0H172.082ZM185.082 0C185.559 2.83789 188.027 5 191 5C193.973 5 196.441 2.83789 196.918 0H185.082ZM198.082 0C198.559 2.83789 201.027 5 204 5C206.973 5 209.441 2.83789 209.918 0H198.082ZM211.082 0C211.559 2.83789 214.027 5 217 5C218.461 5 219.801 4.47656 220.844 3.60742C221.918 2.70996 222.676 1.44238 222.918 0H211.082ZM224.082 0C224.559 2.83789 227.027 5 230 5C232.973 5 235.441 2.83789 235.918 0H224.082ZM237.082 0C237.559 2.83789 240.027 5 243 5C244.684 5 246.207 4.30664 247.297 3.18945C248.129 2.33398 248.711 1.23047 248.918 0H237.082ZM250.082 0C250.559 2.83789 253.027 5 256 5C258.973 5 261.441 2.83789 261.918 0H250.082ZM264 3.08301C261.164 3.55859 259 6.02734 259 9C259 11.9727 261.164 14.4414 264 14.917V3.08301ZM264 16.083C261.164 16.5586 259 19.0273 259 22C259 24.9727 261.164 27.4414 264 27.917V16.083ZM264 29.083C262.434 29.3457 261.07 30.2168 260.168 31.4453C259.434 32.4404 259 33.6699 259 35C259 37.9727 261.164 40.4414 264 40.917V29.083ZM264 42.083C262.523 42.3311 261.23 43.1191 260.328 44.2373C259.496 45.2656 259 46.5752 259 48C259 50.9727 261.164 53.4414 264 53.917V42.083ZM264 55.083C261.164 55.5586 259 58.0273 259 61C259 63.9727 261.164 66.4414 264 66.917V55.083ZM264 68.083C261.164 68.5586 259 71.0273 259 74C259 76.9727 261.164 79.4414 264 79.917V68.083ZM264 81.083C261.164 81.5586 259 84.0273 259 87C259 89.9727 261.164 92.4414 264 92.917V81.083ZM264 94.083C261.164 94.5586 259 97.0273 259 100C259 102.973 261.164 105.441 264 105.917V94.083ZM264 107.083C261.164 107.559 259 110.027 259 113C259 115.973 261.164 118.441 264 118.917V107.083ZM264 120.083C261.164 120.559 259 123.027 259 126C259 128.973 261.164 131.441 264 131.917V120.083ZM264 133.083C262.914 133.266 261.926 133.74 261.121 134.423C259.824 135.523 259 137.166 259 139C259 141.973 261.164 144.441 264 144.917V133.083ZM264 146.083C261.164 146.559 259 149.027 259 152C259 154.973 261.164 157.441 264 157.917V146.083ZM264 159.083C261.164 159.559 259 162.027 259 165C259 167.973 261.164 170.441 264 170.917V159.083ZM264 172.083C261.164 172.559 259 175.027 259 178C259 180.973 261.164 183.441 264 183.917V172.083ZM264 185.083C261.164 185.559 259 188.027 259 191C259 193.973 261.164 196.441 264 196.917V185.083ZM264 198.083C261.164 198.559 259 201.027 259 204C259 206.973 261.164 209.441 264 209.917V198.083ZM264 211.083C261.164 211.559 259 214.027 259 217C259 219.973 261.164 222.441 264 222.917V211.083ZM264 224.083C262.898 224.268 261.898 224.753 261.086 225.453C259.809 226.554 259 228.183 259 230C259 232.973 261.164 235.441 264 235.917V224.083ZM264 237.083C261.164 237.559 259 240.027 259 243C259 245.973 261.164 248.441 264 248.917V237.083ZM264 250.083C261.164 250.559 259 253.027 259 256C259 258.973 261.164 261.441 264 261.917V250.083ZM264 263.083C261.164 263.559 259 266.027 259 269C259 271.973 261.164 274.441 264 274.917V263.083ZM264 276.083C261.164 276.559 259 279.027 259 282C259 284.973 261.164 287.441 264 287.917V276.083ZM264 289.083C261.164 289.559 259 292.027 259 295C259 297.973 261.164 300.441 264 300.917V289.083ZM264 302.083C261.164 302.559 259 305.027 259 308C259 310.973 261.164 313.441 264 313.917V302.083ZM264 315.083C261.164 315.559 259 318.027 259 321C259 323.973 261.164 326.441 264 326.917V315.083ZM264 328.083C261.164 328.559 259 331.027 259 334C259 336.973 261.164 339.441 264 339.917V328.083ZM264 341.083C262.926 341.264 261.949 341.729 261.148 342.401C259.836 343.502 259 345.154 259 347C259 349.973 261.164 352.441 264 352.917V341.083ZM264 354.083C262.801 354.284 261.723 354.843 260.875 355.645C259.723 356.738 259 358.285 259 360C259 362.973 261.164 365.441 264 365.917V354.083ZM261 371C261 367.687 258.312 365 255 365C251.688 365 249 367.687 249 371H261ZM248 371C248 367.687 245.312 365 242 365C238.688 365 236 367.687 236 371H248ZM235 371C235 367.687 232.312 365 229 365C225.688 365 223 367.687 223 371H235ZM222 371C222 367.687 219.312 365 216 365C212.688 365 210 367.687 210 371H222ZM209 371C209 367.687 206.312 365 203 365C199.688 365 197 367.687 197 371H209ZM196 371C196 367.687 193.312 365 190 365C186.688 365 184 367.687 184 371H196ZM183 371C183 367.687 180.312 365 177 365C173.688 365 171 367.687 171 371H183ZM170 371C170 367.687 167.312 365 164 365C160.688 365 158 367.687 158 371H170ZM157 371C157 367.687 154.312 365 151 365C147.688 365 145 367.687 145 371H157ZM144 371C144 367.687 141.312 365 138 365C134.688 365 132 367.687 132 371H144ZM131 371C131 367.687 128.312 365 125 365C121.688 365 119 367.687 119 371H131ZM118 371C118 367.687 115.312 365 112 365C108.688 365 106 367.687 106 371H118ZM105 371C105 367.687 102.312 365 99 365C95.6875 365 93 367.687 93 371H105ZM92 371C92 367.687 89.3125 365 86 365C84.875 365 83.8203 365.311 82.9219 365.851C81.1719 366.898 80 368.812 80 371H92ZM79 371C79 367.687 76.3125 365 73 365C69.6875 365 67 367.687 67 371H79ZM66 371C66 367.687 63.3125 365 60 365C56.6875 365 54 367.687 54 371H66ZM53 371C53 367.687 50.3125 365 47 365C43.6875 365 41 367.687 41 371H53ZM40 371C40 367.687 37.3125 365 34 365C30.6875 365 28 367.687 28 371H40ZM27 371C27 367.687 24.3125 365 21 365C17.6875 365 15 367.687 15 371H27ZM14 371C14 367.687 11.3125 365 8 365C4.6875 365 2 367.687 2 371H14ZM0 365.917C2.83594 365.441 5 362.973 5 360C5 357.027 2.83594 354.559 0 354.083V365.917ZM0 352.917C2.83594 352.441 5 349.973 5 347C5 344.027 2.83594 341.559 0 341.083V352.917ZM0 339.917C1.04297 339.742 1.99219 339.299 2.77734 338.661C4.13281 337.562 5 335.882 5 334C5 331.027 2.83594 328.559 0 328.083V339.917ZM0 326.917C2.83594 326.441 5 323.973 5 321C5 318.027 2.83594 315.559 0 315.083V326.917ZM0 313.917C1.30859 313.698 2.47266 313.056 3.34766 312.136C4.37109 311.059 5 309.603 5 308C5 305.027 2.83594 302.559 0 302.083V313.917ZM0 300.917C2.83594 300.441 5 297.973 5 295C5 292.027 2.83594 289.559 0 289.083V300.917ZM0 287.917C2.83594 287.441 5 284.973 5 282C5 279.027 2.83594 276.559 0 276.083V287.917ZM0 274.917C1.38281 274.685 2.60547 273.978 3.49609 272.97C4.43359 271.912 5 270.522 5 269C5 266.027 2.83594 263.559 0 263.083V274.917ZM0 261.917C2.83594 261.441 5 258.973 5 256C5 253.027 2.83594 250.559 0 250.083V261.917ZM0 248.917C1.40234 248.682 2.64062 247.958 3.53516 246.928C4.44922 245.875 5 244.502 5 243C5 240.027 2.83594 237.559 0 237.083V248.917ZM0 235.917C2.83594 235.441 5 232.973 5 230C5 227.027 2.83594 224.559 0 224.083V235.917ZM0 222.917C2.83594 222.441 5 219.973 5 217C5 214.027 2.83594 211.559 0 211.083V222.917ZM0 209.917C2.83594 209.441 5 206.973 5 204C5 201.027 2.83594 198.559 0 198.083V209.917ZM0 196.917C2.83594 196.441 5 193.973 5 191C5 188.027 2.83594 185.559 0 185.083V196.917ZM0 183.917C2.83594 183.441 5 180.973 5 178C5 175.027 2.83594 172.559 0 172.083V183.917ZM0 170.917C2.83594 170.441 5 167.973 5 165C5 162.027 2.83594 159.559 0 159.083V170.917ZM0 157.917C1.54297 157.658 2.88672 156.809 3.79297 155.609C4.55078 154.605 5 153.355 5 152C5 149.027 2.83594 146.559 0 146.083V157.917ZM0 144.917C2.83594 144.441 5 141.973 5 139C5 136.027 2.83594 133.559 0 133.083V144.917ZM0 131.917C1.74219 131.625 3.23047 130.582 4.11719 129.134C4.67578 128.222 5 127.148 5 126C5 123.027 2.83594 120.559 0 120.083V131.917ZM0 118.917C2.83594 118.441 5 115.973 5 113C5 110.027 2.83594 107.559 0 107.083V118.917ZM0 105.917C2.83594 105.441 5 102.973 5 100C5 97.0273 2.83594 94.5586 0 94.083V105.917ZM0 92.917C1.60938 92.6475 3.00391 91.7344 3.91016 90.4521C4.59766 89.4756 5 88.2852 5 87C5 84.0273 2.83594 81.5586 0 81.083V92.917ZM0 79.917C2.83594 79.4414 5 76.9727 5 74C5 71.0273 2.83594 68.5586 0 68.083V79.917ZM0 66.917C2.83594 66.4414 5 63.9727 5 61C5 58.0273 2.83594 55.5586 0 55.083V66.917ZM0 53.917C2.83594 53.4414 5 50.9727 5 48C5 45.0273 2.83594 42.5586 0 42.083V53.917ZM0 40.917C2.83594 40.4414 5 37.9727 5 35C5 32.0273 2.83594 29.5586 0 29.083V40.917ZM0 27.917C2.83594 27.4414 5 24.9727 5 22C5 19.0273 2.83594 16.5586 0 16.083V27.917ZM0 14.917C2.83594 14.4414 5 11.9727 5 9C5 6.02734 2.83594 3.55859 0 3.08301V14.917Z" fill="black"/>
</svg>
