<svg width="314" height="314" viewBox="0 0 314 314" fill="none" xmlns="http://www.w3.org/2000/svg">
<path fill-rule="evenodd" clip-rule="evenodd" d="M156.389 0.0011692C156.592 0.000389099 156.796 0 157 0C157.204 0 157.408 0.000389099 157.611 0.0011692C174.18 0.0645771 187.56 13.5473 187.496 30.1158C187.433 46.6842 173.95 60.0641 157.382 60.0007C157.255 60.0002 157.127 60 157 60C156.873 60 156.745 60.0002 156.618 60.0007C140.05 60.0641 126.567 46.6842 126.504 30.1158C126.44 13.5473 139.82 0.0645771 156.389 0.0011692ZM88.8423 45.7179C100.513 57.4788 100.439 76.4736 88.6784 88.1439C88.4995 88.3214 88.3214 88.4995 88.1439 88.6784C76.4736 100.439 57.4788 100.513 45.7179 88.8423C33.9569 77.1719 33.8835 58.1771 45.5539 46.4162C45.8402 46.1277 46.1277 45.8402 46.4162 45.5539C58.1771 33.8835 77.1719 33.9569 88.8423 45.7179ZM225.158 45.7179C236.828 33.9569 255.823 33.8835 267.584 45.5539C267.872 45.8402 268.16 46.1277 268.446 46.4162C280.116 58.1771 280.043 77.1719 268.282 88.8423C256.521 100.513 237.526 100.439 225.856 88.6784C225.679 88.4995 225.5 88.3214 225.322 88.1439C213.561 76.4736 213.487 57.4788 225.158 45.7179ZM30.1158 126.504C46.6842 126.567 60.0641 140.05 60.0007 156.618C60.0002 156.745 60 156.873 60 157C60 157.127 60.0002 157.255 60.0007 157.382C60.0641 173.95 46.6842 187.433 30.1158 187.496C13.5473 187.56 0.0645771 174.18 0.0011692 157.611C0.000389099 157.408 0 157.204 0 157C0 156.796 0.000389099 156.592 0.0011692 156.389C0.0645771 139.82 13.5473 126.44 30.1158 126.504ZM283.884 126.504C300.453 126.44 313.935 139.82 313.999 156.389C314 156.592 314 156.796 314 157C314 157.204 314 157.408 313.999 157.611C313.935 174.18 300.453 187.56 283.884 187.496C267.316 187.433 253.936 173.95 253.999 157.382C254 157.255 254 157.127 254 157C254 156.873 254 156.745 253.999 156.618C253.936 140.05 267.316 126.567 283.884 126.504ZM45.7179 225.158C57.4788 213.487 76.4736 213.561 88.1439 225.322C88.3214 225.5 88.4995 225.679 88.6784 225.856C100.439 237.526 100.513 256.521 88.8423 268.282C77.1719 280.043 58.1771 280.116 46.4162 268.446C46.1277 268.16 45.8402 267.872 45.5539 267.584C33.8835 255.823 33.9569 236.828 45.7179 225.158ZM268.282 225.158C280.043 236.828 280.116 255.823 268.446 267.584C268.302 267.729 268.157 267.875 268.012 268.02C267.869 268.162 267.727 268.304 267.584 268.446C255.823 280.116 236.828 280.043 225.158 268.282C213.487 256.521 213.561 237.526 225.322 225.856C225.433 225.745 225.545 225.634 225.656 225.523C225.722 225.456 225.789 225.389 225.856 225.322C237.526 213.561 256.521 213.487 268.282 225.158ZM126.504 283.884C126.567 267.316 140.05 253.936 156.618 253.999C156.691 254 156.764 254 156.837 254C156.891 254 156.946 254 157 254C157.068 254 157.135 254 157.203 254C157.263 254 157.322 253.999 157.382 253.999C173.95 253.936 187.433 267.316 187.496 283.884C187.56 300.453 174.18 313.935 157.611 313.999C157.481 313.999 157.351 314 157.221 314C157.147 314 157.074 314 157 314C156.796 314 156.592 314 156.389 313.999C139.82 313.935 126.44 300.453 126.504 283.884Z" fill="black"/>
<path d="M232 157.5C232 199.197 198.197 233 156.5 233C114.803 233 81 199.197 81 157.5C81 115.803 114.803 82 156.5 82C198.197 82 232 115.803 232 157.5Z" fill="black"/>
</svg>
